<svg width="80" height="80" viewBox="0 0 80 80" fill="none" xmlns="http://www.w3.org/2000/svg">
<g clip-path="url(#clip0_5684_18195)">
<path d="M57.2822 35.8231L62.6458 37.2043L77.7906 24L57.2822 35.8231Z" fill="#3FDDFE"/>
<path d="M65.2578 37.8768L71.3343 39.4416L77.7906 24L65.2578 37.8768Z" fill="#3FDDFE"/>
<path d="M77.7908 24L62.646 37.2043L65.258 41.6L67.4983 38.4538L65.258 37.8768L77.7908 24Z" fill="#4D7FFD"/>
<path d="M65.2578 37.877V41.6002L67.4982 38.454L65.2578 37.877Z" fill="#240065"/>
<path d="M18.8076 50.0271V39.7901C18.8076 39.4002 19.052 39.1562 19.4188 39.1562H21.8634C22.2301 39.1562 22.4745 39.4 22.4745 39.7901V50.0271C22.4745 50.417 22.2301 50.6609 21.8634 50.6609H19.4188C19.052 50.6609 18.8076 50.4172 18.8076 50.0271Z" fill="#240065"/>
<path d="M20.6411 37.8691C21.6537 37.8691 22.4745 37.0506 22.4745 36.041C22.4745 35.0314 21.6537 34.2129 20.6411 34.2129C19.6285 34.2129 18.8076 35.0314 18.8076 36.041C18.8076 37.0506 19.6285 37.8691 20.6411 37.8691Z" fill="#3FDDFE"/>
<path d="M3 49.9897V34.246C3 33.8582 3.24441 33.5996 3.61115 33.5996H10.9202C14.7092 33.5996 16.5917 35.7713 16.5917 38.3305C16.5917 39.9333 15.8094 41.3294 14.0738 42.0272C15.8094 42.6217 17.2029 44.1728 17.2029 45.905C17.2029 48.49 15.3451 50.6617 11.5314 50.6617H3.61115C3.24441 50.6617 3 50.4031 3 49.9897ZM12.876 38.7441C12.876 37.9685 12.4115 37.2188 11.0671 37.2188H6.789V40.373L10.9935 40.3986C12.2161 40.3986 12.876 39.5455 12.876 38.7441ZM11.287 47.0425C12.9983 47.0425 13.4139 46.06 13.4139 45.3364C13.4139 44.5091 12.8027 43.7852 11.776 43.7852H6.789V47.0425H11.287Z" fill="#240065"/>
<path d="M24.0791 50.0044V48.9321C24.0791 48.6639 24.1036 48.4933 24.1524 48.3714C24.8614 46.5435 26.8414 44.0085 28.4305 42.4241H24.7393C24.3483 42.4241 24.0793 42.1562 24.0793 41.7661V39.8162C24.0793 39.4261 24.3483 39.1582 24.7393 39.1582H32.7576C33.1486 39.1582 33.4175 39.4019 33.4175 39.8162L33.393 40.9861C33.393 41.2784 33.3442 41.4981 33.1731 41.6688C31.4617 43.4238 29.0906 46.1536 28.553 47.5674H32.8799C33.2709 47.5674 33.5398 47.8353 33.5398 48.2254V50.0046C33.5398 50.3945 33.2709 50.6627 32.8799 50.6627H24.6907C24.299 50.6627 24.0791 50.3943 24.0791 50.0044Z" fill="#240065"/>
<path d="M35.144 50.0288V40.366C35.144 37.1529 36.3157 33.5996 40.8074 33.5996C41.1003 33.5996 41.3686 33.8673 41.4176 34.1105L41.7348 35.9116C41.8081 36.3255 41.6615 36.6418 41.2224 36.7149C39.3672 37.007 38.6104 37.9318 38.6104 39.806H41.5397C41.9059 39.806 42.1744 40.0494 42.1744 40.4144V42.3859C42.1744 42.7511 41.9057 42.9943 41.5397 42.9943H38.7325V50.0286C38.7325 50.418 38.4883 50.6612 38.1223 50.6612H35.7545C35.3882 50.6617 35.144 50.4182 35.144 50.0288Z" fill="#240065"/>
<path d="M43.7793 50.0281V34.209C43.7793 33.8433 44.0237 33.5996 44.3904 33.5996H46.7615C47.1283 33.5996 47.3727 33.8433 47.3727 34.209V50.0279C47.3727 50.4178 47.1283 50.6615 46.7615 50.6615H44.3904C44.0237 50.6617 43.7793 50.4178 43.7793 50.0281Z" fill="#240065"/>
<path d="M51.1039 55.0744C50.786 54.9524 50.7127 54.6359 50.8595 54.3189L51.5437 52.7103C51.6661 52.3446 52.0326 52.2229 52.3993 52.3932C53.2792 52.7833 53.8415 52.9053 54.4527 52.9053C56.506 52.9053 57.4106 51.589 57.1417 49.6145C56.5305 50.3459 55.4548 50.9066 54.0862 50.9066C51.5437 50.9066 48.9771 49.2247 48.9771 45.0566V39.7918C48.9771 39.4019 49.2215 39.1582 49.5882 39.1582H52.0083C52.3748 39.1582 52.6192 39.4019 52.6192 39.7918V45.1783C52.6192 46.8603 53.3527 47.8111 54.7706 47.8111C55.8216 47.8111 56.7995 47.299 57.1905 46.178V39.7918C57.1905 39.4019 57.4349 39.1582 57.8261 39.1582H60.1484C60.5152 39.1582 60.7596 39.4019 60.7596 39.7918V49.6145C60.7596 54.392 58.4616 56.0008 54.966 56.0008C53.3527 56.0008 52.2284 55.7082 51.1039 55.0744Z" fill="#240065"/>
</g>
<defs>
<clipPath id="clip0_5684_18195">
<rect width="74.7907" height="32" fill="white" transform="translate(3 24)"/>
</clipPath>
</defs>
</svg>
